<svg xmlns="http://www.w3.org/2000/svg" viewBox="0 0 1200 630">
  <defs>
    <pattern id="dots" width="26" height="26" patternUnits="userSpaceOnUse">
      <circle cx="3" cy="3" r="1.5" fill="#1a1712" opacity="0.055"/>
    </pattern>
  </defs>
  <rect width="1200" height="630" fill="#f6efe0"/>
  <rect width="1200" height="630" fill="url(#dots)"/>
  <rect x="0" y="0" width="1200" height="12" fill="#d8301f"/>
  <rect x="0" y="618" width="1200" height="12" fill="#d8301f"/>

  <!-- kicker -->
  <g font-family="'PingFang TC','Heiti TC',sans-serif">
    <rect x="72" y="86" width="470" height="46" rx="23" fill="none" stroke="#1a1712" stroke-width="1.6" opacity="0.5"/>
    <text x="94" y="117" font-size="24" fill="#4a4438" letter-spacing="2">淡江大傳 41st ・ 畢業製作行銷組</text>
  </g>

  <!-- headline -->
  <g font-family="'PingFang TC','Heiti TC',sans-serif" font-weight="900">
    <text x="70" y="290" font-size="118" fill="#1a1712">我們幫品牌</text>
    <text x="70" y="420" font-size="118" fill="#d8301f" font-family="'Helvetica Neue',Helvetica,Arial,sans-serif">Debug<tspan font-family="'PingFang TC','Heiti TC',sans-serif" fill="none" stroke="#1a1712" stroke-width="2.4" dx="24">行銷</tspan></text>
  </g>

  <!-- tagline + url -->
  <g font-family="'PingFang TC','Heiti TC',sans-serif">
    <text x="74" y="492" font-size="34" fill="#3f7d53" font-weight="700">找出問題，解決問題。讓每個想法被完整看見。</text>
    <text x="74" y="556" font-size="26" fill="#a3160a" font-family="'SF Mono','Menlo',monospace" letter-spacing="1">7aDy.bug　·　meganlin0000.github.io/ladybug</text>
  </g>

  <!-- ladybug mascot -->
  <g transform="translate(985 300) scale(1.55)">
    <ellipse cx="0" cy="6" rx="82" ry="88" fill="#d8301f"/>
    <ellipse cx="0" cy="6" rx="82" ry="88" fill="none" stroke="#1a1712" stroke-width="2.4"/>
    <path d="M0 -82v176" stroke="#1a1712" stroke-width="4"/>
    <circle cx="0" cy="-82" r="30" fill="#1a1712"/>
    <circle cx="-11" cy="-86" r="4.8" fill="#f6efe0"/><circle cx="11" cy="-86" r="4.8" fill="#f6efe0"/>
    <path d="M-16 -104c-8-10-18-12-27-10M16 -104c8-10 18-12 27-10" stroke="#1a1712" stroke-width="3" fill="none" stroke-linecap="round"/>
    <circle cx="-40" cy="-26" r="13" fill="#1a1712"/><circle cx="40" cy="-26" r="13" fill="#1a1712"/>
    <circle cx="-46" cy="20" r="11" fill="#1a1712"/><circle cx="46" cy="20" r="11" fill="#1a1712"/>
    <circle cx="-28" cy="60" r="9" fill="#1a1712"/><circle cx="28" cy="60" r="9" fill="#1a1712"/>
  </g>
</svg>
